<svg width="16" height="16" viewBox="0 0 16 16" fill="none" xmlns="http://www.w3.org/2000/svg">
<path d="M3.57389 3.33342L7.41589 7.17541C7.52518 7.28315 7.61196 7.41154 7.6712 7.55311C7.73043 7.69468 7.76094 7.84662 7.76094 8.00008C7.76094 8.15355 7.73043 8.30548 7.6712 8.44705C7.61196 8.58863 7.52518 8.71701 7.41589 8.82475L3.57389 12.6667M8.24055 3.33341L12.0826 7.17541C12.1916 7.28329 12.2782 7.41172 12.3373 7.55327C12.3963 7.69483 12.4268 7.84669 12.4268 8.00008C12.4268 8.15347 12.3963 8.30534 12.3373 8.44689C12.2782 8.58844 12.1916 8.71687 12.0826 8.82475L8.24055 12.6667" stroke="#894864" stroke-width="2.3" stroke-linecap="round" stroke-linejoin="round"/>
</svg>
