<svg width="50" height="50" viewBox="0 0 50 50" fill="none" xmlns="http://www.w3.org/2000/svg">
<path fill-rule="evenodd" clip-rule="evenodd" d="M38.0545 11.7188C37.172 11.7792 36.3765 11.8342 36.2079 11.8449C36.0125 11.8591 35.8421 11.7099 35.8279 11.5146C35.8137 11.3193 35.9628 11.1489 36.1581 11.1364C36.3286 11.124 37.1436 11.069 38.042 11.0068C38.0349 10.5203 38.026 9.9539 38.0118 8.99685C38.0083 8.80154 38.1645 8.63996 38.3616 8.63641C38.5569 8.63286 38.7203 8.78911 38.722 8.9862C38.7363 9.91838 38.7451 10.4795 38.7522 10.9571C39.4181 10.9127 40.0484 10.8701 40.4213 10.847C40.6166 10.8345 40.7853 10.9837 40.7977 11.179C40.8101 11.3743 40.661 11.5448 40.4657 11.5554C40.0875 11.5785 39.4412 11.6229 38.7629 11.6673C38.7718 12.1556 38.7842 12.7131 38.8055 13.663C38.8108 13.8583 38.6546 14.0217 38.4593 14.027C38.264 14.0306 38.1006 13.8761 38.0971 13.6808C38.0757 12.7504 38.0633 12.1964 38.0544 11.7152L38.0545 11.7188ZM24.7731 12.2692C24.7695 12.0739 24.924 11.9106 25.1211 11.907C25.3164 11.9035 25.4798 12.0579 25.4833 12.255C25.5082 13.4358 25.5437 13.4074 25.6183 19.3341C25.6218 19.6306 25.6254 19.8916 25.7106 23.0361C25.7159 23.2315 25.5614 23.3948 25.3661 23.4001C25.1708 23.4055 25.0075 23.251 25.0004 23.0557C24.9151 19.9023 24.9116 19.6395 24.908 19.343C24.8335 13.4234 24.7997 13.4516 24.7731 12.2707V12.2692ZM14.4799 25.231C14.2846 25.2346 14.123 25.0783 14.1195 24.883C14.1159 24.6877 14.2722 24.5244 14.4692 24.5226C18.4607 24.4569 18.4341 24.3876 22.4238 24.5368C22.6191 24.5439 22.7718 24.709 22.7647 24.9043C22.7576 25.0996 22.5925 25.2523 22.3954 25.2452C18.4252 25.0961 18.4518 25.1671 14.4799 25.231ZM28.3399 25.1423C28.1446 25.1458 27.983 24.9878 27.9812 24.7925C27.9777 24.5972 28.1357 24.4356 28.331 24.432C35.6783 24.3379 35.6678 24.3965 37.3119 24.4391C37.5072 24.4445 37.6635 24.6078 37.6582 24.8031C37.6528 24.9984 37.4895 25.1547 37.2942 25.1494C35.6571 25.1068 35.666 25.0482 28.3419 25.1423H28.3399ZM25.0196 27.1806C25.0178 26.9853 25.1758 26.8237 25.3712 26.822C25.5665 26.8202 25.728 26.9782 25.7298 27.1735C25.7351 27.7613 25.8719 31.1579 25.5842 38.9581C25.5771 39.1534 25.412 39.3061 25.2149 39.299C25.0196 39.2919 24.8669 39.1268 24.874 38.9314C25.1616 31.1546 25.0267 27.767 25.0196 27.1806ZM19.0269 17.692C18.8884 17.5535 18.8884 17.3298 19.0269 17.1895C19.1654 17.051 19.3891 17.051 19.5294 17.1895C21.9317 19.5883 21.8092 19.7357 22.8958 21.2005C23.013 21.3585 22.9793 21.5805 22.8212 21.6977C22.665 21.8149 22.4413 21.7811 22.3241 21.6231C21.2605 20.1866 21.3813 20.0428 19.0269 17.692ZM28.0573 21.8965C27.9508 22.0617 27.7306 22.1096 27.5673 22.0031C27.4021 21.8965 27.3542 21.6764 27.4607 21.5113C29.3712 18.5567 29.2541 18.4573 30.987 16.1935C31.106 16.0373 31.3279 16.0089 31.4842 16.1278C31.6405 16.2468 31.6688 16.4705 31.5517 16.625C29.8347 18.8693 29.9519 18.9684 28.0573 21.8965ZM22.6278 27.147C22.7414 26.9872 22.9634 26.9499 23.1231 27.0635C23.2829 27.1772 23.3202 27.3991 23.2066 27.5589C20.0532 31.9801 19.1707 33.2853 18.828 33.793C18.7179 33.9564 18.4978 33.999 18.3344 33.8889C18.1729 33.7788 18.1303 33.5586 18.2386 33.3953C18.583 32.8875 19.4673 31.5788 22.6278 27.147ZM27.4273 27.74C27.3048 27.5873 27.3297 27.3636 27.4841 27.2411C27.6368 27.1186 27.8605 27.1452 27.9831 27.2979C29.9646 29.7837 29.9735 29.7393 31.9035 32.3052C32.0207 32.4614 31.9888 32.6851 31.8325 32.8024C31.6763 32.9195 31.4525 32.8894 31.3353 32.7313C29.4124 30.1727 29.4035 30.2168 27.4273 27.74ZM39.6537 31.8451C39.991 32.5607 40.1828 33.1093 40.3479 33.5657C40.7012 34.5404 40.9232 35.0518 42.3614 35.9574C42.4591 36.0195 42.5212 36.1243 42.5265 36.2397C42.5336 36.3551 42.4821 36.4669 42.3916 36.538C40.4882 38.0276 40.4154 39.0735 39.5844 41.373C39.5311 41.5186 39.3891 41.6144 39.2328 41.6073C39.0766 41.6002 38.9452 41.4919 38.9061 41.341C38.0965 38.2195 38.3504 37.7703 36.3103 36.5646C36.1842 36.4901 36.1185 36.348 36.1398 36.2042C36.1611 36.0604 36.2694 35.945 36.4115 35.913C37.3987 35.6857 37.7911 35.1495 38.1338 34.299C38.393 33.6545 38.6238 32.8484 39.0021 31.87C39.0536 31.7368 39.1779 31.6481 39.3199 31.6427C39.4619 31.6374 39.5933 31.7173 39.6537 31.8469L39.6537 31.8451ZM39.3607 32.9495C39.0624 33.8018 38.8529 34.4978 38.5777 35.0447C38.2794 35.6324 37.91 36.0674 37.3135 36.3533C38.6647 37.2624 38.7908 37.9016 39.3074 40.0145C39.8508 38.4307 40.1988 37.4701 41.5748 36.2894C40.4829 35.5401 40.1473 35.0021 39.8437 34.2386C39.7016 33.8817 39.5702 33.4698 39.3607 32.9495ZM12.4166 33.2443C12.6173 33.6704 12.7327 33.9953 12.8303 34.267C13.0274 34.8103 13.1517 35.0944 13.9543 35.5987C14.0519 35.6608 14.1141 35.7656 14.1194 35.881C14.1265 35.9964 14.075 36.1083 13.9845 36.1793C12.8943 37.0333 12.8587 37.637 12.3811 38.9563C12.3279 39.1019 12.1858 39.1978 12.0314 39.1907C11.8751 39.1836 11.7437 39.077 11.7047 38.9243C11.2448 37.1541 11.4028 36.8895 10.2452 36.2059C10.1209 36.1314 10.0534 35.9893 10.0747 35.8455C10.0978 35.7017 10.2043 35.5863 10.3464 35.5543C10.8701 35.4336 11.0744 35.1441 11.2555 34.6932C11.4082 34.315 11.5431 33.8409 11.765 33.2674C11.8165 33.1342 11.9408 33.0454 12.0829 33.0401C12.2249 33.0348 12.3562 33.1147 12.4166 33.2443ZM12.1183 34.386C12.0029 34.7251 11.9035 35.0127 11.781 35.2524C11.6283 35.5543 11.4454 35.7922 11.1808 35.9697C11.7384 36.3888 11.8875 36.7581 12.1041 37.5997C12.3438 36.9463 12.5888 36.4704 13.1766 35.9306C12.619 35.5205 12.4308 35.2009 12.2568 34.7659C12.2107 34.6505 12.1663 34.5262 12.1166 34.3859L12.1183 34.386ZM9.66805 13.541C9.66272 13.3456 9.81719 13.1823 10.0125 13.1752C10.2078 13.1699 10.3729 13.3243 10.3783 13.5197C10.444 15.8048 10.4315 15.7942 10.4386 16.1919C10.4422 16.3872 10.2859 16.5505 10.0906 16.5541C9.89532 16.5576 9.73197 16.4014 9.72842 16.2061C9.72131 15.8084 9.73374 15.819 9.66805 13.5392V13.541ZM8.07714 17.0601C7.88183 17.0566 7.7238 16.8968 7.72735 16.6997C7.7309 16.5044 7.89071 16.3464 8.08779 16.3499C9.13007 16.3641 9.12829 16.3659 9.29698 16.3659C9.49229 16.3641 9.65209 16.5221 9.65387 16.7192C9.65387 16.9145 9.49762 17.0743 9.30053 17.0761C9.13008 17.0761 9.1336 17.0761 8.07714 17.0601ZM10.7831 17.0584C10.5878 17.0779 10.4138 16.9359 10.3942 16.7405C10.3747 16.5452 10.5168 16.3712 10.7121 16.3517C11.4223 16.2807 11.4117 16.2682 12.1254 16.2913C12.3207 16.2984 12.4752 16.4618 12.4681 16.6571C12.4628 16.8524 12.2977 17.0069 12.1024 17.0015C11.4347 16.9802 11.4454 16.9927 10.7814 17.0584H10.7831ZM9.74619 17.6656C9.74974 17.4703 9.91309 17.314 10.1084 17.3194C10.3037 17.3229 10.46 17.4863 10.4564 17.6816C10.4227 19.173 10.4174 19.1553 10.4067 20.6361C10.4049 20.8314 10.2451 20.9912 10.0498 20.9895C9.85449 20.9877 9.69469 20.8279 9.69647 20.6326C9.70534 19.1482 9.71245 19.1642 9.74619 17.6674V17.6656Z" fill="#626D8D"/>
</svg>
