<svg width="71" height="66" viewBox="0 0 71 66" fill="none" xmlns="http://www.w3.org/2000/svg">
<path d="M60.344 17.9015L63.9854 15.613C64.0378 15.5803 64.0791 15.5326 64.1041 15.4762C64.1291 15.4197 64.1365 15.3571 64.1255 15.2964L63.4281 11.5007C63.4178 11.4446 63.3922 11.3925 63.354 11.3501C63.3159 11.3077 63.2668 11.2767 63.2121 11.2606L58.6782 9.89846L54.3579 8.60236C54.318 8.59003 54.276 8.58625 54.2345 8.59125C54.2246 8.59125 54.2166 8.59804 54.2073 8.59989C54.1935 8.60319 54.1798 8.60752 54.1666 8.61286C54.1292 8.62669 54.0948 8.64765 54.0654 8.67457C54.0592 8.68013 54.05 8.68075 54.0444 8.68692L51.372 11.4766C51.3683 11.4809 51.3683 11.4865 51.3652 11.4908C51.3365 11.5229 51.3154 11.5611 51.3035 11.6025C51.3032 11.6074 51.3032 11.6124 51.3035 11.6173C51.2996 11.6377 51.2978 11.6583 51.2979 11.679C51.296 11.7154 51.3008 11.7518 51.3121 11.7864C51.3158 11.7975 51.3121 11.8099 51.3164 11.8204L53.1007 15.7401C48.7289 15.3357 44.3522 16.4609 40.7175 18.9236C38.2105 15.135 34.6016 12.2066 30.3778 10.5337C26.1541 8.86083 21.5188 8.52388 17.0975 9.56838C12.6762 10.6129 8.6818 12.9885 5.65324 16.3748C2.62468 19.761 0.707795 23.9948 0.161266 28.5047C-0.385262 33.0147 0.464874 37.5838 2.59695 41.5954C4.72903 45.607 8.04041 48.868 12.0842 50.9383C16.128 53.0086 20.7096 53.7886 25.2107 53.173C29.7118 52.5574 33.9157 50.5758 37.255 47.4957C39.1201 49.5545 41.4128 51.1804 43.9725 52.2596C46.5322 53.3388 49.297 53.8451 52.0731 53.7431C54.8491 53.641 57.5693 52.933 60.0428 51.6687C62.5164 50.4044 64.6835 48.6144 66.3923 46.4242C68.1011 44.234 69.3101 41.6966 69.9348 38.9898C70.5594 36.283 70.5845 33.4724 70.0082 30.7549C69.432 28.0373 68.2683 25.4788 66.5989 23.2584C64.9295 21.0381 62.7946 19.2097 60.344 17.9015ZM53.8142 15.8086L52.1607 12.1746L54.3863 12.8461L54.7215 15.9518C54.4129 15.8944 54.1104 15.8469 53.8142 15.8086ZM59.1535 10.686L62.3209 11.6377L60.5588 13.7719L59.1535 10.686ZM59.9206 13.8589L55.4201 12.5098L58.4548 10.6397L59.9206 13.8589ZM54.9257 12.0889L54.627 9.32818L57.842 10.2941L54.9257 12.0889ZM54.3147 12.1783L52.17 11.5352L54.0351 9.58801L54.3147 12.1783ZM55.3559 16.0747L55.0276 13.0362L59.9478 14.5119L58.016 16.8511C57.6457 16.7128 57.2599 16.5801 56.8341 16.4511C56.3354 16.3024 55.8386 16.179 55.3559 16.0747ZM60.5897 14.7039L63.0843 15.4525L59.7052 17.5744C59.3176 17.3893 58.9609 17.2288 58.6202 17.0893L60.5897 14.7039ZM63.4287 14.9113L61.0149 14.1879L62.8801 11.929L63.4287 14.9113ZM0.643483 31.1815C0.639824 27.6074 1.52398 24.0883 3.21655 20.9404C4.90912 17.7924 7.35709 15.1141 10.3406 13.1461C13.3241 11.1781 16.7497 9.98192 20.3098 9.66507C23.8699 9.34823 27.4529 9.92061 30.7371 11.3308C34.0213 12.741 36.9037 14.9449 39.1256 17.7444C41.3475 20.544 42.8393 23.8516 43.4669 27.3703C44.0945 30.8889 43.8383 34.5083 42.7213 37.9034C41.6043 41.2985 39.6615 44.363 37.0674 46.8217H37.0631L37.0588 46.8273C34.0002 49.7334 30.1562 51.6783 26.003 52.4211C21.8498 53.1639 17.57 52.672 13.6937 51.0062C9.81738 49.3404 6.51493 46.5741 4.19547 43.0498C1.876 39.5255 0.641435 35.3981 0.644718 31.1791L0.643483 31.1815ZM42.5376 22.2521C44.9507 20.5358 47.8105 19.5578 50.7692 19.4369C53.7279 19.316 56.658 20.0575 59.2031 21.5711C61.7482 23.0848 63.7986 25.3054 65.1049 27.9628C66.4113 30.6203 66.9172 33.6001 66.5613 36.5398C66.2054 39.4795 65.0029 42.2524 63.1001 44.5213C61.1973 46.7902 58.6762 48.4573 55.8434 49.3198C53.0106 50.1824 49.9883 50.2031 47.1439 49.3796C44.2995 48.5561 41.7557 46.9238 39.8219 44.6813C42.2476 41.5314 43.7799 37.7862 44.2578 33.8394C44.7356 29.8925 44.1414 25.8899 42.5376 22.2521ZM69.0279 40.0024C68.091 43.1339 66.338 45.9599 63.9485 48.1903C61.5591 50.4207 58.6193 51.9754 55.4308 52.6947C52.2423 53.4141 48.9198 53.2722 45.8041 52.2838C42.6885 51.2953 39.8919 49.4958 37.7013 47.0698C38.316 46.4715 38.8958 45.8385 39.438 45.1738C41.4606 47.4776 44.1068 49.1466 47.0572 49.9793C50.0075 50.812 53.1358 50.7729 56.0644 49.8666C58.993 48.9603 61.5967 47.2256 63.561 44.872C65.5253 42.5184 66.7662 39.6465 67.134 36.603C67.5018 33.5595 66.9807 30.4746 65.6337 27.7208C64.2866 24.967 62.1712 22.662 59.5428 21.0842C56.9144 19.5064 53.8854 18.7231 50.8216 18.8291C47.7579 18.935 44.7902 19.9256 42.2771 21.6812C41.9104 20.9122 41.4997 20.165 41.047 19.4433C44.7154 16.9487 49.1632 15.8674 53.5673 16.3993C54.0308 16.4518 54.5159 16.5295 55.0097 16.6295C55.546 16.7369 56.099 16.8764 56.6545 17.0424C57.1445 17.1905 57.5846 17.3417 58.0043 17.5047C58.5433 17.7106 59.0716 17.9433 59.5874 18.2021C63.4845 20.133 66.5712 23.3825 68.2995 27.3736C70.0279 31.3646 70.2859 35.8391 69.0279 40.0024Z" fill="#626D8D"/>
<path d="M40.7169 31.1815C40.7195 27.8301 39.8058 24.5417 38.0747 21.6719L38.0704 21.6645C35.7652 17.8337 32.1498 14.9681 27.8938 13.5987C23.6378 12.2292 19.0297 12.4486 14.923 14.2162C10.8164 15.9838 7.48955 19.1799 5.55876 23.2124C3.62796 27.2449 3.22407 31.8405 4.42189 36.148C5.61971 40.4554 8.33806 44.1828 12.0734 46.6397C15.8088 49.0965 20.308 50.1163 24.7376 49.5102C29.1672 48.9041 33.2271 46.7131 36.1651 43.3431C39.1031 39.9731 40.7202 35.6524 40.7169 31.1815ZM33.7038 29.4071C34.4907 26.7671 35.8688 24.341 37.7334 22.3132C38.1978 23.1207 38.5979 23.9635 38.9301 24.8338C37.1016 27.1251 35.9469 29.8802 35.5952 32.7906C35.2436 35.7009 35.7089 38.6517 36.9391 41.3127C36.4059 42.0838 35.8132 42.812 35.1665 43.4907C33.9981 41.3585 33.2669 39.0147 33.0157 36.5963C32.7646 34.178 32.9985 31.7339 33.7038 29.4071ZM37.3452 40.6924C36.2755 38.231 35.8813 35.529 36.2033 32.8647C36.5253 30.2003 37.5518 27.6699 39.177 25.5343C40.0141 28.0387 40.2841 30.6979 39.9673 33.3195C39.6505 35.9411 38.7548 38.4595 37.3452 40.6924ZM4.34601 31.1815C4.34464 27.2953 5.61016 23.5146 7.9508 20.4123C10.2914 17.31 13.5796 15.0553 17.3169 13.9898C21.0542 12.9244 25.037 13.1064 28.6616 14.5081C32.2863 15.9098 35.3551 18.4549 37.4032 21.7577C34.6648 24.697 32.9291 28.4291 32.4458 32.4172C31.9625 36.4054 32.7564 40.444 34.7135 43.9524C32.2002 46.4148 29.0157 48.0801 25.5595 48.7395C22.1033 49.3989 18.5293 49.0229 15.286 47.6588C12.0427 46.2947 9.2744 44.0032 7.32848 41.0717C5.38256 38.1403 4.34566 34.6994 4.34786 31.1809L4.34601 31.1815Z" fill="#626D8D"/>
<path d="M7.32806 5.64909C7.92719 5.84869 8.46086 6.20727 8.87208 6.68654C9.2833 7.16581 9.55663 7.74777 9.66288 8.37028C9.67709 8.43987 9.71487 8.50244 9.76985 8.54742C9.82483 8.59239 9.89365 8.61702 9.96468 8.61715C10.0358 8.61716 10.1048 8.5926 10.1599 8.54761C10.215 8.50262 10.2529 8.43998 10.2671 8.37028C10.3718 7.74795 10.644 7.1659 11.0547 6.68668C11.4653 6.20746 11.9987 5.84918 12.5976 5.65033C12.6562 5.62812 12.7066 5.58863 12.7421 5.53709C12.7777 5.48555 12.7968 5.42441 12.7968 5.36179C12.7968 5.29917 12.7777 5.23803 12.7421 5.1865C12.7066 5.13496 12.6562 5.09547 12.5976 5.07326C11.9984 4.87403 11.4645 4.51583 11.053 4.0369C10.6415 3.55798 10.3677 2.97629 10.2609 2.35393C10.2467 2.28423 10.2088 2.22158 10.1537 2.17659C10.0986 2.13161 10.0297 2.10704 9.95851 2.10706C9.88748 2.10718 9.81866 2.13181 9.76368 2.17679C9.7087 2.22176 9.67091 2.28433 9.65671 2.35393C9.55172 2.97536 9.2795 3.55648 8.86924 4.0349C8.45899 4.51333 7.9262 4.87101 7.32806 5.06956C7.26951 5.09176 7.2191 5.13126 7.18353 5.1828C7.14796 5.23433 7.12891 5.29547 7.12891 5.35809C7.12891 5.42071 7.14796 5.48185 7.18353 5.53339C7.2191 5.58492 7.26951 5.62442 7.32806 5.64663V5.64909ZM9.9616 3.43833C10.3214 4.26304 10.9511 4.94081 11.7471 5.36025C10.9512 5.77986 10.3221 6.4582 9.96345 7.28341C9.60439 6.45829 8.9751 5.78002 8.17916 5.36025C8.97436 4.94124 9.60257 4.26316 9.95975 3.43833H9.9616Z" fill="#626D8D"/>
<path d="M59.4801 5.32257C60.0793 5.52217 60.6129 5.88075 61.0242 6.36002C61.4354 6.83929 61.7087 7.42124 61.815 8.04375C61.8292 8.11335 61.867 8.17592 61.9219 8.22089C61.9769 8.26587 62.0457 8.2905 62.1168 8.29062C62.1878 8.2905 62.2566 8.26587 62.3116 8.22089C62.3666 8.17592 62.4044 8.11335 62.4186 8.04375C62.5232 7.42142 62.7955 6.83938 63.2061 6.36016C63.6167 5.88094 64.1501 5.52265 64.7491 5.3238C64.8076 5.3016 64.858 5.2621 64.8936 5.21056C64.9292 5.15903 64.9482 5.09789 64.9482 5.03527C64.9482 4.97265 64.9292 4.91151 64.8936 4.85997C64.858 4.80844 64.8076 4.76894 64.7491 4.74673C64.1501 4.54715 63.6166 4.18864 63.2055 3.70949C62.7944 3.23033 62.5211 2.64852 62.4149 2.02617C62.4006 1.95647 62.3628 1.89382 62.3077 1.84884C62.2525 1.80385 62.1836 1.77928 62.1124 1.7793C62.0414 1.77942 61.9726 1.80405 61.9176 1.84903C61.8626 1.89401 61.8248 1.95657 61.8106 2.02617C61.7063 2.64837 61.4343 3.23034 61.0239 3.70949C60.6134 4.18863 60.0802 4.54681 59.4814 4.7455C59.4228 4.76771 59.3724 4.8072 59.3368 4.85874C59.3013 4.91028 59.2822 4.97141 59.2822 5.03404C59.2822 5.09666 59.3013 5.15779 59.3368 5.20933C59.3724 5.26087 59.4228 5.30036 59.4814 5.32257H59.4801ZM62.1137 3.1118C62.4731 3.93676 63.1026 4.6148 63.8986 5.03434C63.1028 5.45331 62.4738 6.13132 62.1155 6.95627C61.7566 6.13139 61.1272 5.45349 60.3312 5.03434C61.1267 4.6152 61.7552 3.93691 62.1124 3.1118H62.1137Z" fill="#626D8D"/>
<path d="M37.9619 55.1457C37.3628 54.9459 36.8292 54.5872 36.4179 54.108C36.0066 53.6288 35.733 53.0469 35.6264 52.4245C35.6122 52.3549 35.5744 52.2923 35.5195 52.2473C35.4645 52.2024 35.3957 52.1777 35.3246 52.1776C35.2536 52.1777 35.1848 52.2024 35.1298 52.2473C35.0748 52.2923 35.037 52.3549 35.0228 52.4245C34.9181 53.0468 34.6459 53.6289 34.2353 54.1081C33.8247 54.5873 33.2912 54.9456 32.6923 55.1444C32.6338 55.1666 32.5834 55.2061 32.5478 55.2577C32.5122 55.3092 32.4932 55.3703 32.4932 55.433C32.4932 55.4956 32.5122 55.5567 32.5478 55.6083C32.5834 55.6598 32.6338 55.6993 32.6923 55.7215C33.2913 55.9212 33.8248 56.2797 34.236 56.7588C34.6472 57.238 34.9207 57.8197 35.0271 58.4421C35.0413 58.5117 35.0791 58.5742 35.1341 58.6192C35.1891 58.6642 35.2579 58.6888 35.3289 58.6889C35.4 58.6888 35.4688 58.6642 35.5238 58.6192C35.5788 58.5742 35.6165 58.5117 35.6307 58.4421C35.7354 57.8199 36.0076 57.238 36.4181 56.7589C36.8286 56.2798 37.3619 55.9216 37.9606 55.7227C38.0192 55.7005 38.0696 55.661 38.1052 55.6095C38.1407 55.558 38.1598 55.4968 38.1598 55.4342C38.1598 55.3716 38.1407 55.3104 38.1052 55.2589C38.0696 55.2074 38.0192 55.1679 37.9606 55.1457H37.9619ZM35.3277 57.3564C34.9682 56.5316 34.3387 55.8536 33.5428 55.4339C34.3387 55.0148 34.9678 54.3365 35.3259 53.5114C35.6856 54.3362 36.3153 55.0142 37.1114 55.4339C36.3154 55.8531 35.6862 56.5313 35.3277 57.3564Z" fill="#626D8D"/>
<path d="M39.015 5.6634C39.0342 5.66742 39.0539 5.66928 39.0736 5.66896C39.0943 5.66942 39.115 5.66756 39.1353 5.6634C39.9215 5.5328 40.6237 5.09577 41.0881 4.44816C41.2492 4.20629 41.3589 3.9339 41.4104 3.64789C41.4619 3.36187 41.4541 3.06833 41.3874 2.78546C41.3423 2.5394 41.2256 2.31212 41.0519 2.13207C40.8783 1.95203 40.6553 1.82722 40.411 1.77327C40.1616 1.74671 39.9095 1.78102 39.6762 1.87324C39.443 1.96547 39.2356 2.11287 39.0718 2.30282C38.9077 2.11214 38.6997 1.96432 38.4657 1.87216C38.2317 1.77999 37.9787 1.74626 37.7288 1.77389C37.4814 1.83019 37.2563 1.95838 37.0817 2.14233C36.9071 2.32628 36.7908 2.55778 36.7474 2.80768C36.6846 3.08844 36.6796 3.37904 36.7327 3.6618C36.7857 3.94456 36.8957 4.21357 37.056 4.45248C37.2855 4.77456 37.577 5.04757 37.9134 5.25551C38.2498 5.46345 38.6243 5.60212 39.015 5.6634ZM37.3486 2.95889C37.4183 2.72374 37.5596 2.43243 37.8423 2.3812C37.8727 2.3757 37.9034 2.37301 37.9343 2.37318C38.1175 2.39933 38.2928 2.46554 38.4476 2.56709C38.6023 2.66864 38.7329 2.80304 38.8298 2.96074C38.8586 2.99907 38.8958 3.03017 38.9387 3.0516C38.9815 3.07302 39.0288 3.08418 39.0767 3.08418C39.1246 3.08418 39.1718 3.07302 39.2147 3.0516C39.2575 3.03017 39.2948 2.99907 39.3236 2.96074C39.4221 2.78663 39.5647 2.64151 39.737 2.54C39.9094 2.43848 40.1055 2.38414 40.3055 2.38244C40.5882 2.43305 40.7301 2.72436 40.7937 2.9379C40.8391 3.13791 40.8432 3.34507 40.8057 3.5467C40.7682 3.74834 40.69 3.94021 40.5758 4.11056C40.2156 4.6047 39.6782 4.9404 39.0761 5.04745C38.4748 4.94078 37.9378 4.6063 37.5769 4.11365C37.4631 3.94642 37.384 3.75804 37.3444 3.55968C37.3047 3.36132 37.3053 3.15702 37.3461 2.95889H37.3486Z" fill="#626D8D"/>
<path d="M11.3007 58.1237C11.0513 58.0957 10.7988 58.1294 10.5654 58.2218C10.332 58.3141 10.1248 58.4622 9.962 58.6532C9.79777 58.4625 9.58953 58.3146 9.35531 58.2225C9.12109 58.1303 8.86794 58.0966 8.61777 58.1243C8.37047 58.1804 8.14534 58.3086 7.97081 58.4926C7.79627 58.6766 7.68013 58.9081 7.63706 59.1581C7.57428 59.4387 7.56927 59.7292 7.62232 60.0119C7.67537 60.2945 7.78538 60.5634 7.94565 60.8022C8.17482 61.124 8.46582 61.3969 8.80164 61.6049C9.13746 61.8129 9.51136 61.9519 9.90152 62.0138C9.92084 62.0175 9.94047 62.0194 9.96015 62.0193C9.98085 62.0195 10.0015 62.0176 10.0219 62.0138C10.8089 61.8834 11.5121 61.4462 11.9771 60.7979C12.1381 60.556 12.2477 60.2836 12.2992 59.9976C12.3507 59.7116 12.343 59.4181 12.2765 59.1352C12.2316 58.8892 12.115 58.662 11.9414 58.482C11.7678 58.302 11.5449 58.1774 11.3007 58.1237ZM11.4618 60.4591C11.1016 60.9531 10.5645 61.2888 9.96262 61.396C9.36128 61.289 8.82422 60.9546 8.46285 60.4622C8.34973 60.295 8.27125 60.1068 8.23202 59.9088C8.1928 59.7108 8.19364 59.507 8.23449 59.3093C8.30423 59.0735 8.44557 58.7828 8.72824 58.7316C8.75878 58.7259 8.78976 58.723 8.82082 58.7229C9.00415 58.7491 9.17948 58.8153 9.33435 58.9169C9.48923 59.0184 9.61986 59.1528 9.71698 59.3105C9.74572 59.3488 9.78299 59.3799 9.82584 59.4014C9.86869 59.4228 9.91594 59.4339 9.96385 59.4339C10.0118 59.4339 10.059 59.4228 10.1019 59.4014C10.1447 59.3799 10.182 59.3488 10.2107 59.3105C10.309 59.1363 10.4514 58.991 10.6237 58.8894C10.796 58.7878 10.992 58.7333 11.1921 58.7316C11.4753 58.7828 11.6167 59.0741 11.6809 59.2871C11.726 59.487 11.7299 59.694 11.6925 59.8955C11.655 60.097 11.5769 60.2887 11.463 60.4591H11.4618Z" fill="#626D8D"/>
<path d="M60.9275 61.4188C60.6782 61.3916 60.426 61.4255 60.1927 61.5177C59.9594 61.6098 59.7522 61.7575 59.5888 61.9478C59.4246 61.757 59.2164 61.6091 58.9822 61.517C58.7479 61.4248 58.4948 61.3911 58.2446 61.4188C57.9974 61.4752 57.7723 61.6034 57.5978 61.7874C57.4233 61.9713 57.3071 62.2028 57.2639 62.4526C57.2012 62.7333 57.1963 63.0238 57.2493 63.3064C57.3024 63.5891 57.4123 63.858 57.5725 64.0968C57.8016 64.4187 58.0925 64.6916 58.4284 64.8996C58.7642 65.1076 59.1382 65.2466 59.5283 65.3084C59.5476 65.3126 59.5673 65.3147 59.587 65.3145C59.6077 65.3148 59.6284 65.3127 59.6487 65.3084C60.0384 65.2441 60.4117 65.1037 60.7472 64.8952C61.0827 64.6867 61.3738 64.4142 61.6039 64.0931C61.7656 63.8508 61.8756 63.5778 61.9272 63.2911C61.9788 63.0044 61.9709 62.7102 61.9039 62.4267C61.8584 62.1813 61.7415 61.9547 61.5678 61.7755C61.3941 61.5962 61.1714 61.4721 60.9275 61.4188ZM61.0886 63.7537C60.7285 64.2477 60.1913 64.5834 59.5894 64.6906C58.9879 64.584 58.4507 64.2495 58.0897 63.7568C57.9765 63.5896 57.898 63.4014 57.8589 63.2034C57.8198 63.0054 57.8208 62.8015 57.8619 62.6038C57.9311 62.3687 58.0724 62.0774 58.3557 62.0262C58.3862 62.0207 58.4172 62.018 58.4483 62.0181C58.6316 62.0442 58.807 62.1104 58.9619 62.2119C59.1168 62.3135 59.2474 62.4479 59.3444 62.6057C59.3732 62.644 59.4104 62.6751 59.4533 62.6966C59.4961 62.718 59.5434 62.7291 59.5913 62.7291C59.6392 62.7291 59.6865 62.718 59.7293 62.6966C59.7721 62.6751 59.8094 62.644 59.8382 62.6057C59.9376 62.4323 60.0804 62.2878 60.2525 62.1863C60.4247 62.0848 60.6203 62.0298 60.8201 62.0268C61.1028 62.078 61.2447 62.3699 61.3089 62.5822C61.3539 62.7824 61.3576 62.9897 61.3197 63.1913C61.2818 63.3929 61.2032 63.5847 61.0886 63.7549V63.7537Z" fill="#626D8D"/>
<path d="M16.2625 4.29006H17.0032V5.03439C17.0032 5.11624 17.0357 5.19473 17.0935 5.2526C17.1514 5.31047 17.2299 5.34299 17.3118 5.34299C17.3936 5.34299 17.4721 5.31047 17.53 5.2526C17.5878 5.19473 17.6204 5.11624 17.6204 5.03439V4.29006H18.3647C18.4465 4.29006 18.525 4.25755 18.5829 4.19968C18.6408 4.14181 18.6733 4.06331 18.6733 3.98147C18.6733 3.89963 18.6408 3.82113 18.5829 3.76326C18.525 3.70539 18.4465 3.67288 18.3647 3.67288H17.6234V2.93225C17.6234 2.85041 17.5909 2.77192 17.5331 2.71404C17.4752 2.65617 17.3967 2.62366 17.3148 2.62366C17.233 2.62366 17.1545 2.65617 17.0966 2.71404C17.0388 2.77192 17.0062 2.85041 17.0062 2.93225V3.67288H16.2656C16.1838 3.67288 16.1053 3.70539 16.0474 3.76326C15.9895 3.82113 15.957 3.89963 15.957 3.98147C15.957 4.06331 15.9895 4.14181 16.0474 4.19968C16.1053 4.25755 16.1838 4.29006 16.2656 4.29006H16.2625Z" fill="#626D8D"/>
<path d="M55.2264 59.5271H54.4809V58.7865C54.4809 58.7047 54.4483 58.6262 54.3905 58.5683C54.3326 58.5104 54.2541 58.4779 54.1723 58.4779C54.0904 58.4779 54.0119 58.5104 53.9541 58.5683C53.8962 58.6262 53.8637 58.7047 53.8637 58.7865V59.5271H53.123C53.0412 59.5271 52.9627 59.5596 52.9048 59.6175C52.847 59.6754 52.8145 59.7539 52.8145 59.8357C52.8145 59.9176 52.847 59.9961 52.9048 60.0539C52.9627 60.1118 53.0412 60.1443 53.123 60.1443H53.8637V60.8886C53.8637 60.9705 53.8962 61.049 53.9541 61.1068C54.0119 61.1647 54.0904 61.1972 54.1723 61.1972C54.2541 61.1972 54.3326 61.1647 54.3905 61.1068C54.4483 61.049 54.4809 60.9705 54.4809 60.8886V60.1443H55.2252C55.307 60.1443 55.3855 60.1118 55.4434 60.0539C55.5013 59.9961 55.5338 59.9176 55.5338 59.8357C55.5338 59.7539 55.5013 59.6754 55.4434 59.6175C55.3855 59.5596 55.307 59.5271 55.2252 59.5271H55.2264Z" fill="#626D8D"/>
<path d="M56.4717 1.67011H57.216V2.41567C57.216 2.49752 57.2485 2.57601 57.3064 2.63388C57.3643 2.69175 57.4428 2.72427 57.5246 2.72427C57.6064 2.72427 57.6849 2.69175 57.7428 2.63388C57.8007 2.57601 57.8332 2.49752 57.8332 2.41567V1.67011H58.5738C58.6557 1.67011 58.7342 1.6376 58.792 1.57972C58.8499 1.52185 58.8824 1.44336 58.8824 1.36152C58.8824 1.27967 58.8499 1.20118 58.792 1.14331C58.7342 1.08543 58.6557 1.05292 58.5738 1.05292H57.8332V0.308594C57.8332 0.22675 57.8007 0.148257 57.7428 0.0903848C57.6849 0.0325122 57.6064 0 57.5246 0C57.4428 0 57.3643 0.0325122 57.3064 0.0903848C57.2485 0.148257 57.216 0.22675 57.216 0.308594V1.05292H56.4717C56.3898 1.05292 56.3113 1.08543 56.2535 1.14331C56.1956 1.20118 56.1631 1.27967 56.1631 1.36152C56.1631 1.44336 56.1956 1.52185 56.2535 1.57972C56.3113 1.6376 56.3898 1.67011 56.4717 1.67011Z" fill="#626D8D"/>
<path d="M19.4213 57.7471H18.6769V57.0065C18.6769 56.9246 18.6444 56.8461 18.5866 56.7883C18.5287 56.7304 18.4502 56.6979 18.3684 56.6979C18.2865 56.6979 18.208 56.7304 18.1501 56.7883C18.0923 56.8461 18.0598 56.9246 18.0598 57.0065V57.7471H17.3154C17.2336 57.7471 17.1551 57.7796 17.0972 57.8375C17.0394 57.8954 17.0068 57.9738 17.0068 58.0557C17.0068 58.1375 17.0394 58.216 17.0972 58.2739C17.1551 58.3318 17.2336 58.3643 17.3154 58.3643H18.0598V59.1086C18.0598 59.1905 18.0923 59.269 18.1501 59.3268C18.208 59.3847 18.2865 59.4172 18.3684 59.4172C18.4502 59.4172 18.5287 59.3847 18.5866 59.3268C18.6444 59.269 18.6769 59.1905 18.6769 59.1086V58.3643H19.4213C19.5031 58.3643 19.5816 58.3318 19.6395 58.2739C19.6974 58.216 19.7299 58.1375 19.7299 58.0557C19.7299 57.9738 19.6974 57.8954 19.6395 57.8375C19.5816 57.7796 19.5031 57.7471 19.4213 57.7471Z" fill="#626D8D"/>
</svg>
